<?xml version="1.0" encoding="iso-8859-1"?>
<!-- Generator: Adobe Illustrator 16.0.0, SVG Export Plug-In . SVG Version: 6.00 Build 0)  -->
<!DOCTYPE svg PUBLIC "-//W3C//DTD SVG 1.1//EN" "http://www.w3.org/Graphics/SVG/1.1/DTD/svg11.dtd">
<svg version="1.1" id="Capa_1" xmlns="http://www.w3.org/2000/svg" xmlns:xlink="http://www.w3.org/1999/xlink" x="0px" y="0px"
	 width="480.672px" height="480.672px" viewBox="0 0 480.672 480.672" style="enable-background:new 0 0 480.672 480.672;"
	 xml:space="preserve">
<g>
	<path d="M345.169,0v28.5H135.503V0H33.336v28.5V57v366.672v28.5v28.5h102.167v-28.5h209.666v28.5h102.167v-28.5v-28.5V57V28.5V0
		H345.169z M344.48,69.731v105.233c-21.792-34.593-60.326-57.63-104.145-57.63c-43.819,0-82.353,23.037-104.145,57.63V69.731H344.48
		z M295.918,240.336c0,4.357-2.086,8.452-5.611,11.014l-59.669,43.336c-2.369,1.721-5.178,2.598-7.999,2.598
		c-2.11,0-4.229-0.489-6.179-1.483c-4.56-2.323-7.43-7.009-7.43-12.126v-86.673c0-5.118,2.871-9.803,7.43-12.126
		c4.56-2.325,10.038-1.895,14.178,1.114l59.669,43.335C293.832,231.885,295.918,235.979,295.918,240.336z M107.815,408.508H58.978
		v-48.836h48.836L107.815,408.508L107.815,408.508z M107.815,263.414H58.978v-48.836h48.836L107.815,263.414L107.815,263.414z
		 M107.815,118.322H58.978V69.484h48.836L107.815,118.322L107.815,118.322z M136.191,410.941V305.708
		c21.792,34.594,60.326,57.63,104.145,57.63c43.818,0,82.353-23.036,104.145-57.63v105.233H136.191z M421.694,408.508h-48.836
		v-48.836h48.836V408.508z M421.694,263.414h-48.836v-48.836h48.836V263.414z M421.694,118.322h-48.836V69.484h48.836V118.322z"/>
</g>
<g>
</g>
<g>
</g>
<g>
</g>
<g>
</g>
<g>
</g>
<g>
</g>
<g>
</g>
<g>
</g>
<g>
</g>
<g>
</g>
<g>
</g>
<g>
</g>
<g>
</g>
<g>
</g>
<g>
</g>
</svg>
